<svg width="256" height="256" viewBox="0 0 256 256" fill="none" xmlns="http://www.w3.org/2000/svg">
<path d="M223.862 67.072L208.072 46.9504C207.956 46.8036 207.811 46.6824 207.645 46.5945C207.48 46.5065 207.299 46.4536 207.112 46.4392C206.925 46.4248 206.738 46.4491 206.561 46.5106C206.385 46.5722 206.222 46.6696 206.085 46.7968L176.128 74.7162C175.883 74.9448 175.731 75.2563 175.703 75.5903C175.675 75.9242 175.771 76.2568 175.974 76.5235L186.634 90.583C186.84 90.8506 187.138 91.0323 187.47 91.0929C187.802 91.1534 188.145 91.0885 188.431 90.9107L223.514 69.0381C223.672 68.937 223.807 68.8043 223.911 68.6482C224.016 68.4922 224.086 68.3162 224.119 68.1314C224.152 67.9466 224.146 67.7571 224.102 67.5747C224.057 67.3924 223.976 67.2212 223.862 67.072V67.072Z" fill="#FCB64F" stroke="#5AB3FA" stroke-width="8"/>
<path d="M202.696 132.096C200.093 125.599 196.228 119.682 191.324 114.688C186.52 109.858 180.783 106.056 174.464 103.511C168.438 101.059 159.882 100.019 153.032 99.8605C153.032 99.8605 153.754 86.7635 151.496 81.5718C146.747 70.5153 137.935 61.7036 126.879 56.9549C121.214 54.5042 115.1 53.2593 108.928 53.2992H33.2032C32.8443 53.3006 32.5005 53.4441 32.2471 53.6984C31.9938 53.9527 31.8516 54.297 31.8516 54.656V206.085C31.8516 206.444 31.994 206.787 32.2475 207.041C32.501 207.294 32.8448 207.437 33.2032 207.437H108.923C115.096 207.478 121.21 206.231 126.874 203.776C127.171 203.648 127.452 203.505 127.739 203.361C127.931 203.259 128.146 203.206 128.364 203.206C128.581 203.206 128.796 203.259 128.988 203.361C130.304 204.068 131.666 204.728 133.059 205.338C139.604 208.128 146.646 209.567 153.761 209.567C160.877 209.567 167.919 208.128 174.464 205.338C180.778 202.608 186.504 198.68 191.324 193.772C196.201 188.756 200.063 182.845 202.696 176.364C205.517 169.473 206.937 162.09 206.874 154.644C206.874 146.371 205.481 138.854 202.696 132.096ZM64.0564 176.584C63.6979 176.584 63.3541 176.441 63.1006 176.188C62.8471 175.934 62.7047 175.59 62.7047 175.232V147.195C62.7047 146.836 62.8471 146.493 63.1006 146.239C63.3541 145.986 63.6979 145.843 64.0564 145.843H101.233C100.793 148.767 100.566 151.719 100.552 154.675C100.488 162.12 101.909 169.504 104.73 176.394C104.73 176.461 104.791 176.522 104.817 176.584H64.0564ZM123.116 105.585C121.959 108.39 119.99 110.785 117.46 112.462C114.931 114.138 111.957 115.019 108.923 114.99H64.0564C63.6979 114.99 63.3541 114.848 63.1006 114.594C62.8471 114.341 62.7047 113.997 62.7047 113.638V85.504C62.7047 85.1455 62.8471 84.8017 63.1006 84.5482C63.3541 84.2947 63.6979 84.1523 64.0564 84.1523H108.923C110.945 84.136 112.949 84.5221 114.82 85.2882C116.691 86.0543 118.391 87.1851 119.821 88.6147C121.25 90.0443 122.381 91.744 123.147 93.615C123.913 95.4859 124.299 97.4907 124.283 99.5123C124.301 101.594 123.904 103.658 123.116 105.585V105.585ZM178.058 166.241C176.774 169.568 174.843 172.607 172.375 175.181C169.985 177.636 167.126 179.586 163.968 180.915C160.729 182.284 157.245 182.981 153.728 182.963C152.416 182.954 151.106 182.843 149.811 182.63C147.623 182.305 145.49 181.679 143.473 180.772C140.319 179.354 137.478 177.323 135.117 174.797C132.708 172.194 130.815 169.159 129.536 165.852C128.151 162.29 127.456 158.497 127.488 154.675C127.436 150.709 128.131 146.768 129.536 143.058C130.798 139.755 132.688 136.728 135.101 134.144C136.35 132.83 137.743 131.662 139.254 130.662C140.578 129.776 141.986 129.022 143.457 128.41C150.036 125.754 157.389 125.754 163.968 128.41C167.139 129.715 170.003 131.668 172.375 134.144C174.83 136.728 176.76 139.764 178.058 143.084C180.844 150.56 180.844 158.79 178.058 166.267V166.241Z" fill="#FBE8D0" stroke="#5AB3FA" stroke-width="8"/>
</svg>
